<?xml version="1.0" encoding="utf-8"?>
<!-- Generator: Adobe Illustrator 22.0.0, SVG Export Plug-In . SVG Version: 6.00 Build 0)  -->
<svg version="1.1" id="图层_1" xmlns="http://www.w3.org/2000/svg" xmlns:xlink="http://www.w3.org/1999/xlink" x="0px" y="0px"
	 viewBox="0 0 750 1000" style="enable-background:new 0 0 750 1000;" xml:space="preserve">
<g>
	<path d="M375.5,876C582.3,876,750,708.3,750,501.5C750,294.7,582.3,127,375.5,127C168.7,127,1,294.7,1,501.5
		C1,708.3,168.7,876,375.5,876L375.5,876z M572.8,359.7c13.7-13.7,35.9-13.7,49.7,0c13.7,13.7,13.7,35.9,0,49.7L342,690.2
		c-13,13-33.8,13.8-47.7,1.8L130.5,551.6c-14.7-12.6-16.4-34.8-3.8-49.5c12.6-14.7,34.8-16.4,49.5-3.8l139.1,119.3L572.8,359.7z
		 M572.8,359.7"/>
</g>
</svg>
