<?xml version="1.0" encoding="utf-8"?>
<!-- Generator: Adobe Illustrator 22.0.0, SVG Export Plug-In . SVG Version: 6.00 Build 0)  -->
<svg version="1.1" id="图层_1" xmlns="http://www.w3.org/2000/svg" xmlns:xlink="http://www.w3.org/1999/xlink" x="0px" y="0px"
	 viewBox="0 0 1024 1024" style="enable-background:new 0 0 1024 1024;" xml:space="preserve">
<g>
	<path d="M770.2,359.3c0-9.9,2-19.7,5.9-28.8l24.7-57.5l-10.2,10.2l-129.8,140l-1.3,1.3c28.7,36.4,44.1,83.8,38.2,134.9
		C688,643,620.5,710.5,537,720.1c-51.1,5.9-98.5-9.5-134.9-38.2l-65.2,65.2c52.3,44.7,121.6,70.2,196.9,65.3
		c137-8.9,248-120.6,256.3-257.6c1.6-25.8-0.5-50.9-5.6-74.8C775.8,440.3,770.2,400,770.2,359.3L770.2,359.3z"/>
	<path d="M253.8,725c-0.1,9.9-2.2,19.7-6.1,28.8l-25.1,57.3l10.3-10.1l130.9-138.9l1.3-1.3c-28.4-36.6-43.4-84.1-37.1-135.2
		c10.3-83.5,78.3-150.4,162-159.3c51.2-5.4,98.4,10.3,134.6,39.3l65.7-64.7c-52-45.2-121-71.2-196.4-67
		c-137.1,7.8-249,118.5-258.4,255.5c-1.8,25.8,0.1,50.9,5,74.8C248.9,644,254.2,684.4,253.8,725L253.8,725z"/>
	<path d="M553.2,543c0,22.9-18.6,41.5-41.5,41.5c-4.8,0-9.5-0.9-13.8-2.4l-59.4,59.4c20.4,15.2,45.7,24.2,73.2,24.2
		c67.8,0,122.7-54.9,122.7-122.7c0-27.4-9-52.7-24.2-73.2l-59.4,59.4C552.3,533.5,553.2,538.2,553.2,543z"/>
	<path d="M470.1,543c0-22.9,18.6-41.5,41.5-41.5c5.6,0,10.9,1.1,15.7,3.1l58.9-58.9c-20.7-15.9-46.6-25.4-74.7-25.4
		c-67.8,0-122.7,54.9-122.7,122.7c0,28.1,9.5,54,25.4,74.7l58.9-58.9C471.2,553.9,470.1,548.6,470.1,543z"/>
</g>
</svg>
