<?xml version="1.0" encoding="utf-8"?>
<!-- Generator: Adobe Illustrator 22.0.0, SVG Export Plug-In . SVG Version: 6.00 Build 0)  -->
<svg version="1.1" id="图层_1" xmlns="http://www.w3.org/2000/svg" xmlns:xlink="http://www.w3.org/1999/xlink" x="0px" y="0px"
	 viewBox="0 0 750 1000" style="enable-background:new 0 0 750 1000;" xml:space="preserve">
<style type="text/css">
	.st0{fill:none;}
</style>
<path d="M374.5,125.4c-207,0-374.8,167.8-374.8,374.8c0,207,167.8,374.8,374.8,374.8c207,0,374.8-167.8,374.8-374.8
	C749.3,293.2,581.5,125.4,374.5,125.4L374.5,125.4z M548.6,632.8c11.4,11.4,11.4,30,0,41.4c-5.7,5.7-13.2,8.6-20.7,8.6
	c-7.5,0-15-2.9-20.7-8.6L374.5,541.6L241.9,674.2c-5.7,5.7-13.2,8.6-20.7,8.6c-7.5,0-15-2.9-20.7-8.6c-11.4-11.4-11.4-30,0-41.4
	l132.6-132.6L200.5,367.5c-11.4-11.4-11.4-30,0-41.4c11.4-11.4,30-11.4,41.4,0l132.6,132.6l132.6-132.6c11.4-11.4,30-11.4,41.4,0
	c11.4,11.4,11.4,30,0,41.4L415.9,500.1L548.6,632.8z M548.6,632.8"/>
<rect x="-0.2" y="124.9" class="st0" width="750.2" height="751"/>
</svg>
