<?xml version="1.0" encoding="utf-8"?>
<!-- Generator: Adobe Illustrator 22.0.0, SVG Export Plug-In . SVG Version: 6.00 Build 0)  -->
<svg version="1.1" id="图层_1" xmlns="http://www.w3.org/2000/svg" xmlns:xlink="http://www.w3.org/1999/xlink" x="0px" y="0px"
	 viewBox="0 0 750 1000" style="enable-background:new 0 0 750 1000;" xml:space="preserve">
<style type="text/css">
	.st0{fill:#3B3B3B;}
	.st1{fill:none;}
</style>
<path class="st0" d="M375,143.1C170.4,141,2.8,305.2,0.6,509.9c0.8,159.4,104.2,300.1,256,348.4c18.7,3.4,25.5-7.8,25.5-17.7v-62.3
	c-104.2,22.1-126.3-49-126.3-49c-6.9-22.3-21.7-41.4-41.5-53.8c-34-22.5,2.7-22.1,2.7-22.1c23.8,3.2,44.9,17.1,57.2,37.8
	c22,38.1,70.4,51.6,108.9,30.3c1.9-18.6,10.3-36,23.8-49c-83.1-9.2-170.2-40.5-170.2-181.2c-0.7-36.7,12.8-72.2,37.8-99.1
	c-11.4-31.5-10-66.2,3.7-96.7c13.8-30.5,31.7-9.9,102.1,37.5c61.3-16.4,125.9-16.4,187.2,0c71.5-47.3,102.1-37.5,102.1-37.5
	c13.8,30.5,15.1,65.2,3.7,96.7c25.6,26.4,39.8,61.7,39.8,98.4c0,141-87.8,172-170.2,181.2c18.3,17.7,27.6,42.7,25.5,68.1v100.5
	c0,11.9,6.8,21.5,25.5,17.7c151.4-48.6,254.4-189,255.3-348.1C747.2,305.2,579.6,141,375,143.1"/>
<rect x="0.7" y="142.9" class="st1" width="748.5" height="716.1"/>
</svg>
