<?xml version="1.0" encoding="utf-8"?>
<!-- Generator: Adobe Illustrator 22.0.0, SVG Export Plug-In . SVG Version: 6.00 Build 0)  -->
<svg version="1.1" id="图层_1" xmlns="http://www.w3.org/2000/svg" xmlns:xlink="http://www.w3.org/1999/xlink" x="0px" y="0px"
	 viewBox="0 0 750 1000" style="enable-background:new 0 0 750 1000;" xml:space="preserve">
<style type="text/css">
	.st0{fill:#3A3B3B;stroke:#231815;stroke-miterlimit:10;}
	.st1{clip-path:url(#SVGID_2_);}
</style>
<circle class="st0" cx="375" cy="500" r="375"/>
<g>
	<g>
		<defs>
			<rect id="SVGID_1_" x="101.1" y="268.3" width="547.9" height="464.3"/>
		</defs>
		<clipPath id="SVGID_2_">
			<use xlink:href="#SVGID_1_"  style="overflow:visible;"/>
		</clipPath>
		<path class="st1" d="M283.4,355.3v358.4c0,9.5-4.6,18.3-15,18.3c-3.5,0-7-0.9-10.1-2.4l-142.1-71.2c-8.6-4.3-15.3-15.3-15.3-24.4
			V285.6c0-7.6,3.7-14.7,11.9-14.7c4.9,0,9.2,2.4,13.5,4.6l156.1,78.2C282.9,354.2,283.2,354.7,283.4,355.3L283.4,355.3z
			 M302.9,386.1l163.1,264.6l-163.1-81.3V386.1z M648.5,391.6v322c0,10.1-5.8,17.1-15.9,17.1c-5.2,0-10.1-1.5-14.4-4l-134.7-67.2
			L648.5,391.6z M647.5,355c0,1.2-157.9,257.5-170.2,277.1L358.2,438.4l99-161c3.4-5.4,9.5-8.7,15.9-8.6c2.8,0,5.5,0.6,7.9,1.8
			l165.3,82.5C646.9,353.5,647.5,354.1,647.5,355L647.5,355z M647.5,355"/>
	</g>
</g>
</svg>
