<?xml version="1.0" encoding="utf-8"?>
<!-- Generator: Adobe Illustrator 22.0.0, SVG Export Plug-In . SVG Version: 6.00 Build 0)  -->
<svg version="1.1" id="图层_1" xmlns="http://www.w3.org/2000/svg" xmlns:xlink="http://www.w3.org/1999/xlink" x="0px" y="0px"
	 viewBox="0 0 750 1000" style="enable-background:new 0 0 750 1000;" xml:space="preserve">
<style type="text/css">
	.st0{fill:#3B3B3B;stroke:#231815;stroke-miterlimit:10;}
	.st1{clip-path:url(#SVGID_2_);}
</style>
<circle class="st0" cx="375" cy="469" r="375"/>
<g>
	<g>
		<defs>
			<rect id="SVGID_1_" x="78.9" y="261.3" width="537.1" height="451.7"/>
		</defs>
		<clipPath id="SVGID_2_">
			<use xlink:href="#SVGID_1_"  style="overflow:visible;"/>
		</clipPath>
		<path class="st1" d="M280.7,684.9L289,559l228.6-206c10.1-9.2-2.1-13.7-15.5-5.7L219.9,525.6l-122-38.7
			c-26.2-7.4-26.5-25.6,6-38.7l475.4-183.4c21.7-9.8,42.6,5.4,34.2,38.7l-81,381.3c-5.7,27.1-22,33.6-44.7,21.1l-123.2-91.1
			l-59.2,57.5C298.5,679.2,292.9,684.9,280.7,684.9L280.7,684.9z M280.7,684.9"/>
	</g>
</g>
</svg>
