<?xml version="1.0" encoding="utf-8"?>
<!-- Generator: Adobe Illustrator 22.0.0, SVG Export Plug-In . SVG Version: 6.00 Build 0)  -->
<svg version="1.1" id="图层_1" xmlns="http://www.w3.org/2000/svg" xmlns:xlink="http://www.w3.org/1999/xlink" x="0px" y="0px"
	 viewBox="0 0 750 1000" style="enable-background:new 0 0 750 1000;" xml:space="preserve">
<style type="text/css">
	.st0{fill:#FFFFFF;}
	.st1{fill:#3B3B3B;}
	.st2{fill:#515151;}
</style>
<path class="st0" d="M374.2,124.4C166.7,124.4-1.6,292.7-1.6,500.3C-1.6,707.8,166.7,876,374.2,876S750,707.8,750,500.2
	C750,292.7,581.8,124.4,374.2,124.4L374.2,124.4z M374.2,124.4"/>
<path class="st1" d="M374.2,124.4C166.7,124.4-1.6,292.7-1.6,500.3C-1.6,707.8,166.7,876,374.2,876S750,707.8,750,500.2
	C750,292.7,581.8,124.4,374.2,124.4L374.2,124.4z"/>
<path d="M576.1,432.4c0.2,4.3,0.3,8.6,0.3,13c0,132.3-99.2,285.1-280.6,285.1c-55.7,0-107.5-16.6-151.1-45.2
	c52.3,6.4,104.9-8.5,146-41.4c-43.1-0.7-79.6-29.5-92.1-69.6c6.1,1.3,12.2,1.8,18.5,1.8c9,0,17.7-1.2,26-3.4
	c-45.1-9.3-79.1-49.8-79.1-98.3l0-1.4c13.6,7.8,29,12.1,44.6,12.5c-27.6-18.8-44-50-43.9-83.4c0-18.3,4.9-35.5,13.4-50.3
	c48.6,60.6,121.3,100.5,203.2,104.6c-1.7-7.5-2.6-15.1-2.6-22.8c0-55.4,44.2-100.2,98.6-100.2c28.4,0,54,12.3,72,31.8
	c22.1-4.5,43.3-12.7,62.7-24.3c-7.3,23.1-22.7,42.8-43.4,55.3c19.6-2.3,38.7-7.6,56.7-15.7C612.1,400.6,595.5,418.1,576.1,432.4
	L576.1,432.4z"/>
<path class="st2" d="M576.1,432.4"/>
</svg>
